# xmcd CD database file
#
# Track frame offsets:
#	150
#	15943
#	30354
#	43351
#	57276
#	67956
#	82551
#	96913
#	105990
#	114709
#	127375
#	138090
#	148420
#	160941
#	177282
#	191517
#	205613
#	219253
#
# Disc length: 3116 seconds
#
# Revision: 0
# Processed by: cddbd v1.5.1PL0 Copyright (c) Steve Scherf et al.
# Submitted via: CDex 1.50beta9
#
DISCID=f20c2a12
DTITLE=Rosemary Clooney - Complete 1950-1952 Columbia Master Takes
DYEAR=2002
DGENRE=Jazz
TTITLE0=Tenderly
TTITLE1=Peachtree Street
TTITLE2=You're Just In Love
TTITLE3=Love Means Love
TTITLE4=Cherry Pies Ought To Be You
TTITLE5=Beautiful Brown Eyes
TTITLE6=Mixed Emotions
TTITLE7=Come On-A My House
TTITLE8=If Teardrops Were Pennies
TTITLE9=Half As Much
TTITLE10=Be My Life's Companion
TTITLE11=Botch-A-Me (Ba-Ba-Baciami Piccina)
TTITLE12=Too Old To Cut The Mustard
TTITLE13=Blues In The Night
TTITLE14=You'll Never Know
TTITLE15=When You Which Upon A Star
TTITLE16=In The Cool, Cool, Cool Of The Evening
TTITLE17=It Might As Well Be Spring
EXTD=YEAR: 2002
EXTT0=
EXTT1=
EXTT2=
EXTT3=
EXTT4=
EXTT5=
EXTT6=
EXTT7=
EXTT8=
EXTT9=
EXTT10=
EXTT11=
EXTT12=
EXTT13=
EXTT14=
EXTT15=
EXTT16=
EXTT17=
PLAYORDER=
